<svg width="49" height="49" viewBox="0 0 49 49" fill="none" xmlns="http://www.w3.org/2000/svg">
<path d="M49 0H0V49H49V0Z" fill="#FED18C"/>
<path d="M33.9182 13.7282C33.9182 13.7282 39.1525 12.7397 43.7976 20.8453C44.14 21.4425 45.6393 26.9328 45.1132 29.0281C44.5871 31.1234 33.9182 13.7282 33.9182 13.7282Z" fill="#082028"/>
<path d="M33.3733 21.6483C33.3733 21.6483 35.4998 21.6991 38.4196 19.5095C38.4196 19.5095 44.259 24.3757 45.1716 29.485C46.0842 34.5944 45.6579 36.1758 45.6579 36.1758L44.3196 39.3387C44.3196 39.3387 39.9404 40.4338 30.6337 35.8714C30.6337 35.8714 29.1129 35.5039 29.2347 33.4992C29.3566 31.4946 30.4511 30.2757 29.6022 29.12C28.7533 27.9642 29.228 27.8068 29.228 27.8068C29.228 27.8068 34.4476 22.7844 33.3733 21.6483Z" fill="white"/>
<path d="M31.0596 27.8644C30.3093 28.1375 29.7054 28.121 29.0519 28.1094C29.0519 28.1094 20.5035 27.9256 7.64128 29.8121C6.88548 29.9229 5.82526 30.1122 4.78282 30.8466C3.55785 31.7096 3.33184 32.6381 3.01886 32.5493C2.83511 32.4972 2.72854 32.2069 2.67219 31.8327C2.64052 31.6094 2.62191 31.3844 2.61646 31.1589C2.60557 30.7131 2.61743 30.2671 2.65198 29.8225C2.81509 27.8272 3.41813 25.8928 4.41777 24.1582C5.12519 22.9522 6.05862 21.7922 7.39813 20.5691C10.9273 17.3462 14.7173 16.1769 18.7726 14.9734C23.1157 13.6841 26.2363 13.4483 28.8087 13.2701C32.1015 13.0423 33.7668 12.9449 34.7088 13.757C36.583 15.3721 35.7574 18.9129 35.0824 21.9184C35.0824 21.9184 34.179 25.9448 32.0384 27.3695C31.7363 27.5784 31.407 27.7449 31.0596 27.8644Z" fill="#FFAF34"/>
<path d="M6.61464 22.7599C6.11669 21.832 10.8873 18.611 14.3234 16.9303C22.2685 13.0459 31.5765 13.2352 31.8851 14.5116C32.41 16.6792 7.66628 24.7229 6.61464 22.7599Z" fill="#EF6F6C"/>
<path d="M34.6334 16.2547C34.7908 15.7231 35.535 15.9963 35.8486 16.0097C37.4024 16.0851 38.8498 17.6702 39.5523 19.9633C39.5523 19.9633 39.7838 20.4496 38.6262 21.3016C37.4686 22.1536 35.3402 22.8236 35.102 22.5805C34.8637 22.3373 33.5922 19.7832 34.6334 16.2547Z" fill="#FF722A"/>
<path d="M36.6069 21.2404C37.6901 21.2404 38.5681 20.3623 38.5681 19.2792C38.5681 18.1961 37.6901 17.318 36.6069 17.318C35.5238 17.318 34.6458 18.1961 34.6458 19.2792C34.6458 20.3623 35.5238 21.2404 36.6069 21.2404Z" fill="#155DFF"/>
<path d="M35.8593 19.7581C36.338 19.7581 36.726 19.3701 36.726 18.8915C36.726 18.4128 36.338 18.0248 35.8593 18.0248C35.3807 18.0248 34.9927 18.4128 34.9927 18.8915C34.9927 19.3701 35.3807 19.7581 35.8593 19.7581Z" fill="white"/>
<path d="M23.642 22.2497C23.642 22.2497 6.54078 23.5359 2.61353 31.8945" stroke="black" stroke-width="0.5" stroke-miterlimit="10"/>
<path d="M29.8578 30.5275C29.8578 30.5275 29.0861 34.7848 32.3519 35.7581C35.6176 36.7313 42.3268 38.7997 42.3268 38.7997C42.3268 38.7997 44.6426 38.3097 45.2955 36.9138C45.9484 35.518 45.4143 40.1986 44.5832 41.4762H17.9236C17.9236 41.4762 27.6609 31.0744 29.8578 30.5275Z" fill="#082028"/>
</svg>
